<?xml version="1.0" encoding="UTF-8"?>
<svg width="24px" height="24px" viewBox="0 0 24 24" version="1.1" xmlns="http://www.w3.org/2000/svg" xmlns:xlink="http://www.w3.org/1999/xlink">
    <title>AUTOMATIC APPROVAL</title>
    <g id="AUTOMATIC-APPROVAL" stroke="none" stroke-width="1" fill="none" fill-rule="evenodd">
        <path d="M15.5,2 L8.5,2 C8.27452447,2 8.07694463,2.15091066 8.01761809,2.3684413 L5.01761809,13.3684413 L5.00259055,13.4476845 C4.9714054,13.7365823 5.19778718,14 5.5,14 L10.859,14 L9.01492875,21.3787322 C8.88604846,21.8942533 9.54392495,22.228315 9.88411064,21.8200922 L19.8841106,9.8200922 L19.9317737,9.75290581 C20.1237649,9.43070237 19.8956576,9 19.5,9 L14.162,9 L15.980762,2.63736056 C16.0720214,2.31795246 15.8321894,2 15.5,2 Z M14.837,3 L13.019238,9.36263944 L13.0031827,9.44227798 C12.9685919,9.73283161 13.195493,10 13.5,10 L18.431,10 L10.516,19.498 L11.9850713,13.6212678 L11.9988874,13.5356695 C12.0198526,13.25264 11.7957142,13 11.5,13 L6.154,13 L8.881,3 L14.837,3 Z" id="Automatic-approval" fill="#708C91" fill-rule="nonzero"></path>
    </g>
</svg>